<svg xmlns="http://www.w3.org/2000/svg" width="30" height="30" viewBox="0 0 30 30" fill="none">
<path d="M0 0 C1.63377338 0.73643451 3.26787895 1.47213258 4.90234375 2.20703125 C37.83548321 17.19878085 67.97927369 38.03429727 95 62 C95.94617188 62.83402344 96.89234375 63.66804688 97.8671875 64.52734375 C110.33629835 75.73572732 122.87483459 87.4419261 133.1875 100.6953125 C134.92789512 102.90831491 136.76682515 104.94327734 138.6875 107 C149.86759774 119.47182218 159.22208602 133.77245042 168 148 C168.41169434 148.66644531 168.82338867 149.33289063 169.24755859 150.01953125 C195.48280351 192.8271388 212.80781837 239.64008865 221.25 289.0625 C221.37533112 289.78579498 221.50066223 290.50908997 221.62979126 291.25430298 C225.13921693 311.73998889 226.39090852 332.23377118 226.3125 353 C226.30976578 354.52205551 226.30976578 354.52205551 226.30697632 356.07485962 C226.04418662 443.58040549 196.25557804 527.43822477 142 596 C141.27425781 596.92039062 140.54851563 597.84078125 139.80078125 598.7890625 C134.75582225 605.07488215 129.39473852 611.00625558 123.890625 616.88671875 C121.44925708 619.49872845 119.09527844 622.17613951 116.75 624.875 C106.56061687 636.22730186 94.87184125 646.43975945 83 656 C82.39704102 656.4861377 81.79408203 656.97227539 81.17285156 657.47314453 C58.29902934 675.75703864 33.32092214 691.41663148 6.91845703 704.07324219 C4.99697165 705.00146292 3.09018167 705.95567071 1.18359375 706.9140625 C-37.40867552 726.03316838 -80.38920828 736.268321 -123 741 C-123.93666504 741.1045752 -124.87333008 741.20915039 -125.83837891 741.31689453 C-137.68305844 742.42578347 -149.61522499 742.24392957 -161.5 742.25 C-163.27744095 742.25101212 -163.27744095 742.25101212 -165.09078979 742.25204468 C-182.92795662 742.23591091 -200.3498452 741.77359575 -218 739 C-219.15564453 738.82307617 -220.31128906 738.64615234 -221.50195312 738.46386719 C-262.9610693 731.96553793 -302.83010139 719.39762443 -340.07861328 699.99755859 C-342.0759144 698.96058625 -344.08241284 697.94298687 -346.08984375 696.92578125 C-391.00435488 673.93072114 -432.67665247 639.51390484 -464 600 C-464.88057533 598.94344394 -465.76352485 597.88886354 -466.6484375 596.8359375 C-485.32662613 574.3896218 -499.85815966 548.9636072 -513 523 C-513.37511719 522.26587891 -513.75023437 521.53175781 -514.13671875 520.77539062 C-539.92096014 469.94783432 -551.21763763 411.7777895 -551.25 355.125 C-551.25101212 353.52996643 -551.25101212 353.52996643 -551.25204468 351.90270996 C-551.22449147 324.46795093 -548.61608732 297.8961747 -543 271 C-542.79568359 270.02144043 -542.59136719 269.04288086 -542.38085938 268.03466797 C-529.59166701 208.76792653 -501.53638812 152.11513709 -462.50878906 105.80126953 C-461.11867746 104.14168322 -459.75546431 102.46399372 -458.3984375 100.77734375 C-451.58387176 92.43227476 -444.02926162 84.81752935 -436.4375 77.1875 C-435.90660767 76.65134064 -435.37571533 76.11518127 -434.82873535 75.56277466 C-427.88598554 68.56684372 -420.71854897 62.14784517 -413 56 C-411.89818988 55.0651992 -410.80186205 54.12383575 -409.71484375 53.171875 C-391.23169597 37.05436217 -370.46069819 23.75492966 -348.94628906 12.06347656 C-347.02526769 11.01380658 -345.11801265 9.94194164 -343.2109375 8.8671875 C-252.80388228 -41.35769628 -139.1034164 -47.83061249 0 0 Z " fill="white" />
</svg>


